<mxfile host="app.diagrams.net" modified="2023-01-28T15:54:14.985Z" agent="5.0 (Macintosh; Intel Mac OS X 10_15_7) AppleWebKit/605.1.15 (KHTML, like Gecko) Version/16.1 Safari/605.1.15" etag="8Hw6Gte30V7yk4IiPIny" version="20.8.10" type="github">
  <diagram name="第 1 页" id="haMjfOQgUyY7g4PJn1Ck">
    <mxGraphModel dx="1194" dy="735" grid="1" gridSize="10" guides="1" tooltips="1" connect="1" arrows="1" fold="1" page="1" pageScale="1" pageWidth="827" pageHeight="1169" math="0" shadow="0">
      <root>
        <mxCell id="0" />
        <mxCell id="1" parent="0" />
        <mxCell id="9X9NrXB_2GdcQ_k7NygE-1" value="" style="rounded=0;whiteSpace=wrap;html=1;" vertex="1" parent="1">
          <mxGeometry x="170" y="130" width="900" height="350" as="geometry" />
        </mxCell>
        <mxCell id="9X9NrXB_2GdcQ_k7NygE-2" value="" style="ellipse;whiteSpace=wrap;html=1;aspect=fixed;fillColor=#d5e8d4;strokeColor=#82b366;" vertex="1" parent="1">
          <mxGeometry x="280" y="220" width="40" height="40" as="geometry" />
        </mxCell>
        <mxCell id="9X9NrXB_2GdcQ_k7NygE-3" value="" style="ellipse;whiteSpace=wrap;html=1;aspect=fixed;fillColor=#d5e8d4;strokeColor=#82b366;" vertex="1" parent="1">
          <mxGeometry x="330" y="220" width="40" height="40" as="geometry" />
        </mxCell>
        <mxCell id="9X9NrXB_2GdcQ_k7NygE-4" value="" style="ellipse;whiteSpace=wrap;html=1;aspect=fixed;fillColor=#d5e8d4;strokeColor=#82b366;" vertex="1" parent="1">
          <mxGeometry x="380" y="220" width="40" height="40" as="geometry" />
        </mxCell>
        <mxCell id="9X9NrXB_2GdcQ_k7NygE-5" value="" style="ellipse;whiteSpace=wrap;html=1;aspect=fixed;fillColor=#d5e8d4;strokeColor=#82b366;" vertex="1" parent="1">
          <mxGeometry x="430" y="220" width="40" height="40" as="geometry" />
        </mxCell>
        <mxCell id="9X9NrXB_2GdcQ_k7NygE-6" value="" style="ellipse;whiteSpace=wrap;html=1;aspect=fixed;fillColor=#d5e8d4;strokeColor=#82b366;" vertex="1" parent="1">
          <mxGeometry x="480" y="220" width="40" height="40" as="geometry" />
        </mxCell>
        <mxCell id="9X9NrXB_2GdcQ_k7NygE-7" value="" style="ellipse;whiteSpace=wrap;html=1;aspect=fixed;fillColor=#d5e8d4;strokeColor=#82b366;" vertex="1" parent="1">
          <mxGeometry x="530" y="220" width="40" height="40" as="geometry" />
        </mxCell>
        <mxCell id="9X9NrXB_2GdcQ_k7NygE-8" value="" style="rounded=0;whiteSpace=wrap;html=1;" vertex="1" parent="1">
          <mxGeometry x="270" y="150" width="310" height="60" as="geometry" />
        </mxCell>
        <mxCell id="9X9NrXB_2GdcQ_k7NygE-9" value="" style="shape=document;whiteSpace=wrap;html=1;boundedLbl=1;fillColor=#e1d5e7;strokeColor=#9673a6;" vertex="1" parent="1">
          <mxGeometry x="280" y="160" width="40" height="40" as="geometry" />
        </mxCell>
        <mxCell id="9X9NrXB_2GdcQ_k7NygE-10" value="" style="shape=document;whiteSpace=wrap;html=1;boundedLbl=1;fillColor=#e1d5e7;strokeColor=#9673a6;" vertex="1" parent="1">
          <mxGeometry x="330" y="160" width="40" height="40" as="geometry" />
        </mxCell>
        <mxCell id="9X9NrXB_2GdcQ_k7NygE-11" value="" style="shape=document;whiteSpace=wrap;html=1;boundedLbl=1;fillColor=#dae8fc;strokeColor=#6c8ebf;" vertex="1" parent="1">
          <mxGeometry x="430" y="160" width="40" height="40" as="geometry" />
        </mxCell>
        <mxCell id="9X9NrXB_2GdcQ_k7NygE-12" value="" style="shape=document;whiteSpace=wrap;html=1;boundedLbl=1;fillColor=#e1d5e7;strokeColor=#9673a6;" vertex="1" parent="1">
          <mxGeometry x="380" y="160" width="40" height="40" as="geometry" />
        </mxCell>
        <mxCell id="9X9NrXB_2GdcQ_k7NygE-13" value="" style="shape=document;whiteSpace=wrap;html=1;boundedLbl=1;fillColor=#e1d5e7;strokeColor=#9673a6;" vertex="1" parent="1">
          <mxGeometry x="480" y="160" width="40" height="40" as="geometry" />
        </mxCell>
        <mxCell id="9X9NrXB_2GdcQ_k7NygE-14" value="" style="shape=document;whiteSpace=wrap;html=1;boundedLbl=1;fillColor=#e1d5e7;strokeColor=#9673a6;" vertex="1" parent="1">
          <mxGeometry x="530" y="160" width="40" height="40" as="geometry" />
        </mxCell>
        <mxCell id="9X9NrXB_2GdcQ_k7NygE-15" value="生产原料：" style="text;html=1;strokeColor=none;fillColor=none;align=left;verticalAlign=middle;whiteSpace=wrap;rounded=0;" vertex="1" parent="1">
          <mxGeometry x="190" y="165" width="70" height="30" as="geometry" />
        </mxCell>
        <mxCell id="9X9NrXB_2GdcQ_k7NygE-16" value="正式员工：" style="text;html=1;strokeColor=none;fillColor=none;align=left;verticalAlign=middle;whiteSpace=wrap;rounded=0;" vertex="1" parent="1">
          <mxGeometry x="190" y="225" width="70" height="30" as="geometry" />
        </mxCell>
        <mxCell id="9X9NrXB_2GdcQ_k7NygE-47" value="" style="ellipse;whiteSpace=wrap;html=1;aspect=fixed;fillColor=#fff2cc;strokeColor=#d6b656;" vertex="1" parent="1">
          <mxGeometry x="820" y="220" width="40" height="40" as="geometry" />
        </mxCell>
        <mxCell id="9X9NrXB_2GdcQ_k7NygE-48" value="" style="ellipse;whiteSpace=wrap;html=1;aspect=fixed;fillColor=#fff2cc;strokeColor=#d6b656;" vertex="1" parent="1">
          <mxGeometry x="870" y="220" width="40" height="40" as="geometry" />
        </mxCell>
        <mxCell id="9X9NrXB_2GdcQ_k7NygE-49" value="" style="ellipse;whiteSpace=wrap;html=1;aspect=fixed;fillColor=#fff2cc;strokeColor=#d6b656;" vertex="1" parent="1">
          <mxGeometry x="920" y="220" width="40" height="40" as="geometry" />
        </mxCell>
        <mxCell id="9X9NrXB_2GdcQ_k7NygE-50" value="" style="rounded=0;whiteSpace=wrap;html=1;" vertex="1" parent="1">
          <mxGeometry x="810" y="150" width="160" height="60" as="geometry" />
        </mxCell>
        <mxCell id="9X9NrXB_2GdcQ_k7NygE-51" value="" style="shape=document;whiteSpace=wrap;html=1;boundedLbl=1;fillColor=#dae8fc;strokeColor=#6c8ebf;" vertex="1" parent="1">
          <mxGeometry x="820" y="160" width="40" height="40" as="geometry" />
        </mxCell>
        <mxCell id="9X9NrXB_2GdcQ_k7NygE-52" value="" style="shape=document;whiteSpace=wrap;html=1;boundedLbl=1;fillColor=#dae8fc;strokeColor=#6c8ebf;" vertex="1" parent="1">
          <mxGeometry x="870" y="160" width="40" height="40" as="geometry" />
        </mxCell>
        <mxCell id="9X9NrXB_2GdcQ_k7NygE-53" value="" style="shape=document;whiteSpace=wrap;html=1;boundedLbl=1;fillColor=#dae8fc;strokeColor=#6c8ebf;" vertex="1" parent="1">
          <mxGeometry x="920" y="160" width="40" height="40" as="geometry" />
        </mxCell>
        <mxCell id="9X9NrXB_2GdcQ_k7NygE-54" value="生产原料：" style="text;html=1;strokeColor=none;fillColor=none;align=left;verticalAlign=middle;whiteSpace=wrap;rounded=0;" vertex="1" parent="1">
          <mxGeometry x="730" y="165" width="70" height="30" as="geometry" />
        </mxCell>
        <mxCell id="9X9NrXB_2GdcQ_k7NygE-55" value="临时员工：" style="text;html=1;strokeColor=none;fillColor=none;align=left;verticalAlign=middle;whiteSpace=wrap;rounded=0;" vertex="1" parent="1">
          <mxGeometry x="730" y="225" width="70" height="30" as="geometry" />
        </mxCell>
        <mxCell id="9X9NrXB_2GdcQ_k7NygE-137" style="edgeStyle=orthogonalEdgeStyle;rounded=0;orthogonalLoop=1;jettySize=auto;html=1;exitX=1;exitY=0.5;exitDx=0;exitDy=0;entryX=1;entryY=0.5;entryDx=0;entryDy=0;curved=1;" edge="1" parent="1" source="9X9NrXB_2GdcQ_k7NygE-70" target="9X9NrXB_2GdcQ_k7NygE-8">
          <mxGeometry relative="1" as="geometry" />
        </mxCell>
        <mxCell id="9X9NrXB_2GdcQ_k7NygE-138" value="生产调用员" style="edgeLabel;html=1;align=center;verticalAlign=middle;resizable=0;points=[];" vertex="1" connectable="0" parent="9X9NrXB_2GdcQ_k7NygE-137">
          <mxGeometry x="-0.6878" y="16" relative="1" as="geometry">
            <mxPoint y="1" as="offset" />
          </mxGeometry>
        </mxCell>
        <mxCell id="9X9NrXB_2GdcQ_k7NygE-70" value="" style="rounded=1;whiteSpace=wrap;html=1;" vertex="1" parent="1">
          <mxGeometry x="195" y="330" width="330" height="125" as="geometry" />
        </mxCell>
        <mxCell id="9X9NrXB_2GdcQ_k7NygE-71" value="" style="shape=document;whiteSpace=wrap;html=1;boundedLbl=1;fillColor=#dae8fc;strokeColor=#6c8ebf;" vertex="1" parent="1">
          <mxGeometry x="215" y="350" width="40" height="40" as="geometry" />
        </mxCell>
        <mxCell id="9X9NrXB_2GdcQ_k7NygE-72" value="" style="shape=document;whiteSpace=wrap;html=1;boundedLbl=1;fillColor=#dae8fc;strokeColor=#6c8ebf;" vertex="1" parent="1">
          <mxGeometry x="265" y="350" width="40" height="40" as="geometry" />
        </mxCell>
        <mxCell id="9X9NrXB_2GdcQ_k7NygE-73" value="" style="shape=document;whiteSpace=wrap;html=1;boundedLbl=1;fillColor=#ffe6cc;strokeColor=#d79b00;" vertex="1" parent="1">
          <mxGeometry x="315" y="350" width="40" height="40" as="geometry" />
        </mxCell>
        <mxCell id="9X9NrXB_2GdcQ_k7NygE-74" value="" style="shape=document;whiteSpace=wrap;html=1;boundedLbl=1;fillColor=#ffe6cc;strokeColor=#d79b00;" vertex="1" parent="1">
          <mxGeometry x="365" y="350" width="40" height="40" as="geometry" />
        </mxCell>
        <mxCell id="9X9NrXB_2GdcQ_k7NygE-75" value="" style="shape=document;whiteSpace=wrap;html=1;boundedLbl=1;fillColor=#ffe6cc;strokeColor=#d79b00;" vertex="1" parent="1">
          <mxGeometry x="415" y="350" width="40" height="40" as="geometry" />
        </mxCell>
        <mxCell id="9X9NrXB_2GdcQ_k7NygE-76" value="" style="shape=document;whiteSpace=wrap;html=1;boundedLbl=1;fillColor=#ffe6cc;strokeColor=#d79b00;" vertex="1" parent="1">
          <mxGeometry x="465" y="350" width="40" height="40" as="geometry" />
        </mxCell>
        <mxCell id="9X9NrXB_2GdcQ_k7NygE-77" value="" style="shape=document;whiteSpace=wrap;html=1;boundedLbl=1;fillColor=#ffe6cc;strokeColor=#d79b00;" vertex="1" parent="1">
          <mxGeometry x="215" y="405" width="40" height="40" as="geometry" />
        </mxCell>
        <mxCell id="9X9NrXB_2GdcQ_k7NygE-78" value="" style="shape=document;whiteSpace=wrap;html=1;boundedLbl=1;fillColor=#ffe6cc;strokeColor=#d79b00;" vertex="1" parent="1">
          <mxGeometry x="265" y="405" width="40" height="40" as="geometry" />
        </mxCell>
        <mxCell id="9X9NrXB_2GdcQ_k7NygE-79" value="" style="shape=document;whiteSpace=wrap;html=1;boundedLbl=1;fillColor=#f5f5f5;strokeColor=#666666;fontColor=#333333;" vertex="1" parent="1">
          <mxGeometry x="315" y="405" width="40" height="40" as="geometry" />
        </mxCell>
        <mxCell id="9X9NrXB_2GdcQ_k7NygE-80" value="" style="shape=document;whiteSpace=wrap;html=1;boundedLbl=1;fillColor=#f5f5f5;strokeColor=#666666;fontColor=#333333;" vertex="1" parent="1">
          <mxGeometry x="365" y="405" width="40" height="40" as="geometry" />
        </mxCell>
        <mxCell id="9X9NrXB_2GdcQ_k7NygE-81" value="" style="shape=document;whiteSpace=wrap;html=1;boundedLbl=1;fillColor=#f5f5f5;strokeColor=#666666;fontColor=#333333;" vertex="1" parent="1">
          <mxGeometry x="415" y="405" width="40" height="40" as="geometry" />
        </mxCell>
        <mxCell id="9X9NrXB_2GdcQ_k7NygE-82" value="" style="shape=document;whiteSpace=wrap;html=1;boundedLbl=1;fillColor=#f5f5f5;strokeColor=#666666;fontColor=#333333;" vertex="1" parent="1">
          <mxGeometry x="465" y="405" width="40" height="40" as="geometry" />
        </mxCell>
        <mxCell id="9X9NrXB_2GdcQ_k7NygE-83" value="仓库" style="text;html=1;strokeColor=none;fillColor=none;align=left;verticalAlign=middle;whiteSpace=wrap;rounded=0;" vertex="1" parent="1">
          <mxGeometry x="195" y="300" width="35" height="30" as="geometry" />
        </mxCell>
        <mxCell id="9X9NrXB_2GdcQ_k7NygE-88" value="" style="rounded=1;whiteSpace=wrap;html=1;" vertex="1" parent="1">
          <mxGeometry x="750" y="335" width="220" height="120" as="geometry" />
        </mxCell>
        <mxCell id="9X9NrXB_2GdcQ_k7NygE-89" value="超量订单：拒绝甲方话术" style="text;html=1;strokeColor=none;fillColor=none;align=left;verticalAlign=middle;whiteSpace=wrap;rounded=0;" vertex="1" parent="1">
          <mxGeometry x="750" y="305" width="150" height="30" as="geometry" />
        </mxCell>
        <mxCell id="9X9NrXB_2GdcQ_k7NygE-90" value="" style="shape=document;whiteSpace=wrap;html=1;boundedLbl=1;fillColor=#f5f5f5;strokeColor=#666666;fontColor=#333333;" vertex="1" parent="1">
          <mxGeometry x="770" y="350" width="40" height="40" as="geometry" />
        </mxCell>
        <mxCell id="9X9NrXB_2GdcQ_k7NygE-91" value="" style="shape=document;whiteSpace=wrap;html=1;boundedLbl=1;fillColor=#f5f5f5;strokeColor=#666666;fontColor=#333333;" vertex="1" parent="1">
          <mxGeometry x="820" y="350" width="40" height="40" as="geometry" />
        </mxCell>
        <mxCell id="9X9NrXB_2GdcQ_k7NygE-92" value="工厂的生产模式" style="text;html=1;strokeColor=none;fillColor=none;align=left;verticalAlign=middle;whiteSpace=wrap;rounded=0;fontStyle=1;fontSize=16;" vertex="1" parent="1">
          <mxGeometry x="165" y="90" width="120" height="30" as="geometry" />
        </mxCell>
        <mxCell id="9X9NrXB_2GdcQ_k7NygE-93" value="" style="rounded=0;whiteSpace=wrap;html=1;" vertex="1" parent="1">
          <mxGeometry x="175" y="580" width="895" height="350" as="geometry" />
        </mxCell>
        <mxCell id="9X9NrXB_2GdcQ_k7NygE-94" value="" style="ellipse;whiteSpace=wrap;html=1;aspect=fixed;fillColor=#d5e8d4;strokeColor=#82b366;" vertex="1" parent="1">
          <mxGeometry x="285" y="670" width="40" height="40" as="geometry" />
        </mxCell>
        <mxCell id="9X9NrXB_2GdcQ_k7NygE-95" value="" style="ellipse;whiteSpace=wrap;html=1;aspect=fixed;fillColor=#d5e8d4;strokeColor=#82b366;" vertex="1" parent="1">
          <mxGeometry x="335" y="670" width="40" height="40" as="geometry" />
        </mxCell>
        <mxCell id="9X9NrXB_2GdcQ_k7NygE-96" value="" style="ellipse;whiteSpace=wrap;html=1;aspect=fixed;fillColor=#d5e8d4;strokeColor=#82b366;" vertex="1" parent="1">
          <mxGeometry x="385" y="670" width="40" height="40" as="geometry" />
        </mxCell>
        <mxCell id="9X9NrXB_2GdcQ_k7NygE-97" value="" style="ellipse;whiteSpace=wrap;html=1;aspect=fixed;fillColor=#d5e8d4;strokeColor=#82b366;" vertex="1" parent="1">
          <mxGeometry x="435" y="670" width="40" height="40" as="geometry" />
        </mxCell>
        <mxCell id="9X9NrXB_2GdcQ_k7NygE-98" value="" style="ellipse;whiteSpace=wrap;html=1;aspect=fixed;fillColor=#d5e8d4;strokeColor=#82b366;" vertex="1" parent="1">
          <mxGeometry x="485" y="670" width="40" height="40" as="geometry" />
        </mxCell>
        <mxCell id="9X9NrXB_2GdcQ_k7NygE-99" value="" style="ellipse;whiteSpace=wrap;html=1;aspect=fixed;fillColor=#d5e8d4;strokeColor=#82b366;" vertex="1" parent="1">
          <mxGeometry x="535" y="670" width="40" height="40" as="geometry" />
        </mxCell>
        <mxCell id="9X9NrXB_2GdcQ_k7NygE-100" value="" style="rounded=0;whiteSpace=wrap;html=1;" vertex="1" parent="1">
          <mxGeometry x="275" y="600" width="310" height="60" as="geometry" />
        </mxCell>
        <mxCell id="9X9NrXB_2GdcQ_k7NygE-101" value="" style="shape=document;whiteSpace=wrap;html=1;boundedLbl=1;fillColor=#e1d5e7;strokeColor=#9673a6;" vertex="1" parent="1">
          <mxGeometry x="285" y="610" width="40" height="40" as="geometry" />
        </mxCell>
        <mxCell id="9X9NrXB_2GdcQ_k7NygE-102" value="" style="shape=document;whiteSpace=wrap;html=1;boundedLbl=1;fillColor=#e1d5e7;strokeColor=#9673a6;" vertex="1" parent="1">
          <mxGeometry x="335" y="610" width="40" height="40" as="geometry" />
        </mxCell>
        <mxCell id="9X9NrXB_2GdcQ_k7NygE-103" value="" style="shape=document;whiteSpace=wrap;html=1;boundedLbl=1;fillColor=#dae8fc;strokeColor=#6c8ebf;" vertex="1" parent="1">
          <mxGeometry x="435" y="610" width="40" height="40" as="geometry" />
        </mxCell>
        <mxCell id="9X9NrXB_2GdcQ_k7NygE-104" value="" style="shape=document;whiteSpace=wrap;html=1;boundedLbl=1;fillColor=#e1d5e7;strokeColor=#9673a6;" vertex="1" parent="1">
          <mxGeometry x="385" y="610" width="40" height="40" as="geometry" />
        </mxCell>
        <mxCell id="9X9NrXB_2GdcQ_k7NygE-105" value="" style="shape=document;whiteSpace=wrap;html=1;boundedLbl=1;fillColor=#e1d5e7;strokeColor=#9673a6;" vertex="1" parent="1">
          <mxGeometry x="485" y="610" width="40" height="40" as="geometry" />
        </mxCell>
        <mxCell id="9X9NrXB_2GdcQ_k7NygE-106" value="" style="shape=document;whiteSpace=wrap;html=1;boundedLbl=1;fillColor=#e1d5e7;strokeColor=#9673a6;" vertex="1" parent="1">
          <mxGeometry x="535" y="610" width="40" height="40" as="geometry" />
        </mxCell>
        <mxCell id="9X9NrXB_2GdcQ_k7NygE-107" value="任务：" style="text;html=1;strokeColor=none;fillColor=none;align=left;verticalAlign=middle;whiteSpace=wrap;rounded=0;" vertex="1" parent="1">
          <mxGeometry x="220" y="615" width="45" height="30" as="geometry" />
        </mxCell>
        <mxCell id="9X9NrXB_2GdcQ_k7NygE-108" value="核心线程：" style="text;html=1;strokeColor=none;fillColor=none;align=left;verticalAlign=middle;whiteSpace=wrap;rounded=0;" vertex="1" parent="1">
          <mxGeometry x="220" y="675" width="70" height="30" as="geometry" />
        </mxCell>
        <mxCell id="9X9NrXB_2GdcQ_k7NygE-109" value="" style="ellipse;whiteSpace=wrap;html=1;aspect=fixed;fillColor=#fff2cc;strokeColor=#d6b656;" vertex="1" parent="1">
          <mxGeometry x="825" y="670" width="40" height="40" as="geometry" />
        </mxCell>
        <mxCell id="9X9NrXB_2GdcQ_k7NygE-110" value="" style="ellipse;whiteSpace=wrap;html=1;aspect=fixed;fillColor=#fff2cc;strokeColor=#d6b656;" vertex="1" parent="1">
          <mxGeometry x="875" y="670" width="40" height="40" as="geometry" />
        </mxCell>
        <mxCell id="9X9NrXB_2GdcQ_k7NygE-111" value="" style="ellipse;whiteSpace=wrap;html=1;aspect=fixed;fillColor=#fff2cc;strokeColor=#d6b656;" vertex="1" parent="1">
          <mxGeometry x="925" y="670" width="40" height="40" as="geometry" />
        </mxCell>
        <mxCell id="9X9NrXB_2GdcQ_k7NygE-112" value="" style="rounded=0;whiteSpace=wrap;html=1;" vertex="1" parent="1">
          <mxGeometry x="815" y="600" width="160" height="60" as="geometry" />
        </mxCell>
        <mxCell id="9X9NrXB_2GdcQ_k7NygE-113" value="" style="shape=document;whiteSpace=wrap;html=1;boundedLbl=1;fillColor=#dae8fc;strokeColor=#6c8ebf;" vertex="1" parent="1">
          <mxGeometry x="825" y="610" width="40" height="40" as="geometry" />
        </mxCell>
        <mxCell id="9X9NrXB_2GdcQ_k7NygE-114" value="" style="shape=document;whiteSpace=wrap;html=1;boundedLbl=1;fillColor=#dae8fc;strokeColor=#6c8ebf;" vertex="1" parent="1">
          <mxGeometry x="875" y="610" width="40" height="40" as="geometry" />
        </mxCell>
        <mxCell id="9X9NrXB_2GdcQ_k7NygE-115" value="" style="shape=document;whiteSpace=wrap;html=1;boundedLbl=1;fillColor=#dae8fc;strokeColor=#6c8ebf;" vertex="1" parent="1">
          <mxGeometry x="925" y="610" width="40" height="40" as="geometry" />
        </mxCell>
        <mxCell id="9X9NrXB_2GdcQ_k7NygE-116" value="任务：" style="text;html=1;strokeColor=none;fillColor=none;align=left;verticalAlign=middle;whiteSpace=wrap;rounded=0;" vertex="1" parent="1">
          <mxGeometry x="760" y="615" width="40" height="30" as="geometry" />
        </mxCell>
        <mxCell id="9X9NrXB_2GdcQ_k7NygE-117" value="临时线程：" style="text;html=1;strokeColor=none;fillColor=none;align=left;verticalAlign=middle;whiteSpace=wrap;rounded=0;" vertex="1" parent="1">
          <mxGeometry x="760" y="675" width="70" height="30" as="geometry" />
        </mxCell>
        <mxCell id="9X9NrXB_2GdcQ_k7NygE-145" style="edgeStyle=orthogonalEdgeStyle;curved=1;rounded=0;orthogonalLoop=1;jettySize=auto;html=1;exitX=1;exitY=0.5;exitDx=0;exitDy=0;entryX=1;entryY=0.5;entryDx=0;entryDy=0;fontSize=16;" edge="1" parent="1" source="9X9NrXB_2GdcQ_k7NygE-118" target="9X9NrXB_2GdcQ_k7NygE-100">
          <mxGeometry relative="1" as="geometry" />
        </mxCell>
        <mxCell id="9X9NrXB_2GdcQ_k7NygE-146" value="&lt;font style=&quot;font-size: 12px;&quot;&gt;调度线程&lt;/font&gt;" style="edgeLabel;html=1;align=center;verticalAlign=middle;resizable=0;points=[];fontSize=16;" vertex="1" connectable="0" parent="9X9NrXB_2GdcQ_k7NygE-145">
          <mxGeometry x="-0.7333" y="14" relative="1" as="geometry">
            <mxPoint y="1" as="offset" />
          </mxGeometry>
        </mxCell>
        <mxCell id="9X9NrXB_2GdcQ_k7NygE-118" value="" style="rounded=1;whiteSpace=wrap;html=1;" vertex="1" parent="1">
          <mxGeometry x="200" y="780" width="330" height="125" as="geometry" />
        </mxCell>
        <mxCell id="9X9NrXB_2GdcQ_k7NygE-119" value="" style="shape=document;whiteSpace=wrap;html=1;boundedLbl=1;fillColor=#dae8fc;strokeColor=#6c8ebf;" vertex="1" parent="1">
          <mxGeometry x="220" y="800" width="40" height="40" as="geometry" />
        </mxCell>
        <mxCell id="9X9NrXB_2GdcQ_k7NygE-120" value="" style="shape=document;whiteSpace=wrap;html=1;boundedLbl=1;fillColor=#dae8fc;strokeColor=#6c8ebf;" vertex="1" parent="1">
          <mxGeometry x="270" y="800" width="40" height="40" as="geometry" />
        </mxCell>
        <mxCell id="9X9NrXB_2GdcQ_k7NygE-121" value="" style="shape=document;whiteSpace=wrap;html=1;boundedLbl=1;fillColor=#ffe6cc;strokeColor=#d79b00;" vertex="1" parent="1">
          <mxGeometry x="320" y="800" width="40" height="40" as="geometry" />
        </mxCell>
        <mxCell id="9X9NrXB_2GdcQ_k7NygE-122" value="" style="shape=document;whiteSpace=wrap;html=1;boundedLbl=1;fillColor=#ffe6cc;strokeColor=#d79b00;" vertex="1" parent="1">
          <mxGeometry x="370" y="800" width="40" height="40" as="geometry" />
        </mxCell>
        <mxCell id="9X9NrXB_2GdcQ_k7NygE-123" value="" style="shape=document;whiteSpace=wrap;html=1;boundedLbl=1;fillColor=#ffe6cc;strokeColor=#d79b00;" vertex="1" parent="1">
          <mxGeometry x="420" y="800" width="40" height="40" as="geometry" />
        </mxCell>
        <mxCell id="9X9NrXB_2GdcQ_k7NygE-124" value="" style="shape=document;whiteSpace=wrap;html=1;boundedLbl=1;fillColor=#ffe6cc;strokeColor=#d79b00;" vertex="1" parent="1">
          <mxGeometry x="470" y="800" width="40" height="40" as="geometry" />
        </mxCell>
        <mxCell id="9X9NrXB_2GdcQ_k7NygE-125" value="" style="shape=document;whiteSpace=wrap;html=1;boundedLbl=1;fillColor=#ffe6cc;strokeColor=#d79b00;" vertex="1" parent="1">
          <mxGeometry x="220" y="855" width="40" height="40" as="geometry" />
        </mxCell>
        <mxCell id="9X9NrXB_2GdcQ_k7NygE-126" value="" style="shape=document;whiteSpace=wrap;html=1;boundedLbl=1;fillColor=#ffe6cc;strokeColor=#d79b00;" vertex="1" parent="1">
          <mxGeometry x="270" y="855" width="40" height="40" as="geometry" />
        </mxCell>
        <mxCell id="9X9NrXB_2GdcQ_k7NygE-127" value="" style="shape=document;whiteSpace=wrap;html=1;boundedLbl=1;fillColor=#f5f5f5;strokeColor=#666666;fontColor=#333333;" vertex="1" parent="1">
          <mxGeometry x="320" y="855" width="40" height="40" as="geometry" />
        </mxCell>
        <mxCell id="9X9NrXB_2GdcQ_k7NygE-128" value="" style="shape=document;whiteSpace=wrap;html=1;boundedLbl=1;fillColor=#f5f5f5;strokeColor=#666666;fontColor=#333333;" vertex="1" parent="1">
          <mxGeometry x="370" y="855" width="40" height="40" as="geometry" />
        </mxCell>
        <mxCell id="9X9NrXB_2GdcQ_k7NygE-129" value="" style="shape=document;whiteSpace=wrap;html=1;boundedLbl=1;fillColor=#f5f5f5;strokeColor=#666666;fontColor=#333333;" vertex="1" parent="1">
          <mxGeometry x="420" y="855" width="40" height="40" as="geometry" />
        </mxCell>
        <mxCell id="9X9NrXB_2GdcQ_k7NygE-130" value="" style="shape=document;whiteSpace=wrap;html=1;boundedLbl=1;fillColor=#f5f5f5;strokeColor=#666666;fontColor=#333333;" vertex="1" parent="1">
          <mxGeometry x="470" y="855" width="40" height="40" as="geometry" />
        </mxCell>
        <mxCell id="9X9NrXB_2GdcQ_k7NygE-131" value="队列" style="text;html=1;strokeColor=none;fillColor=none;align=left;verticalAlign=middle;whiteSpace=wrap;rounded=0;" vertex="1" parent="1">
          <mxGeometry x="200" y="750" width="30" height="30" as="geometry" />
        </mxCell>
        <mxCell id="9X9NrXB_2GdcQ_k7NygE-132" value="" style="rounded=1;whiteSpace=wrap;html=1;" vertex="1" parent="1">
          <mxGeometry x="755" y="785" width="220" height="120" as="geometry" />
        </mxCell>
        <mxCell id="9X9NrXB_2GdcQ_k7NygE-133" value="超量任务：拒绝策略" style="text;html=1;strokeColor=none;fillColor=none;align=left;verticalAlign=middle;whiteSpace=wrap;rounded=0;" vertex="1" parent="1">
          <mxGeometry x="755" y="755" width="125" height="30" as="geometry" />
        </mxCell>
        <mxCell id="9X9NrXB_2GdcQ_k7NygE-134" value="" style="shape=document;whiteSpace=wrap;html=1;boundedLbl=1;fillColor=#f5f5f5;strokeColor=#666666;fontColor=#333333;" vertex="1" parent="1">
          <mxGeometry x="775" y="800" width="40" height="40" as="geometry" />
        </mxCell>
        <mxCell id="9X9NrXB_2GdcQ_k7NygE-135" value="" style="shape=document;whiteSpace=wrap;html=1;boundedLbl=1;fillColor=#f5f5f5;strokeColor=#666666;fontColor=#333333;" vertex="1" parent="1">
          <mxGeometry x="825" y="800" width="40" height="40" as="geometry" />
        </mxCell>
        <mxCell id="9X9NrXB_2GdcQ_k7NygE-136" value="线程池模式" style="text;html=1;strokeColor=none;fillColor=none;align=left;verticalAlign=middle;whiteSpace=wrap;rounded=0;fontStyle=1;fontSize=16;" vertex="1" parent="1">
          <mxGeometry x="170" y="540" width="120" height="30" as="geometry" />
        </mxCell>
        <mxCell id="9X9NrXB_2GdcQ_k7NygE-139" value="正式员工 + 临时员工 = 最大可容纳员工数" style="text;html=1;strokeColor=none;fillColor=none;align=left;verticalAlign=middle;whiteSpace=wrap;rounded=0;" vertex="1" parent="1">
          <mxGeometry x="270" y="275" width="236" height="30" as="geometry" />
        </mxCell>
        <mxCell id="9X9NrXB_2GdcQ_k7NygE-140" value="核心线程 + 临时线程 = 最大线程数" style="text;html=1;strokeColor=none;fillColor=none;align=left;verticalAlign=middle;whiteSpace=wrap;rounded=0;" vertex="1" parent="1">
          <mxGeometry x="275" y="725" width="236" height="30" as="geometry" />
        </mxCell>
        <mxCell id="9X9NrXB_2GdcQ_k7NygE-147" value="订单" style="shape=flexArrow;endArrow=classic;html=1;rounded=0;fontSize=12;curved=1;endWidth=34;endSize=12.67;width=28;fillColor=#f5f5f5;strokeColor=#666666;labelBackgroundColor=none;" edge="1" parent="1">
          <mxGeometry width="50" height="50" relative="1" as="geometry">
            <mxPoint x="50" y="289.5" as="sourcePoint" />
            <mxPoint x="160" y="289.5" as="targetPoint" />
          </mxGeometry>
        </mxCell>
        <mxCell id="9X9NrXB_2GdcQ_k7NygE-149" value="任务" style="shape=flexArrow;endArrow=classic;html=1;rounded=0;fontSize=12;curved=1;endWidth=34;endSize=12.67;width=28;fillColor=#f5f5f5;strokeColor=#666666;labelBackgroundColor=none;" edge="1" parent="1">
          <mxGeometry width="50" height="50" relative="1" as="geometry">
            <mxPoint x="50" y="739.5" as="sourcePoint" />
            <mxPoint x="160" y="739.5" as="targetPoint" />
            <mxPoint as="offset" />
          </mxGeometry>
        </mxCell>
        <mxCell id="9X9NrXB_2GdcQ_k7NygE-154" style="edgeStyle=orthogonalEdgeStyle;curved=1;rounded=0;orthogonalLoop=1;jettySize=auto;html=1;entryX=0.5;entryY=0;entryDx=0;entryDy=0;labelBackgroundColor=none;fontSize=12;" edge="1" parent="1" source="9X9NrXB_2GdcQ_k7NygE-151" target="9X9NrXB_2GdcQ_k7NygE-152">
          <mxGeometry relative="1" as="geometry" />
        </mxCell>
        <mxCell id="9X9NrXB_2GdcQ_k7NygE-151" value="新任务" style="shape=document;whiteSpace=wrap;html=1;boundedLbl=1;fontSize=12;fillColor=#dae8fc;strokeColor=#6c8ebf;" vertex="1" parent="1">
          <mxGeometry x="1310" y="120" width="120" height="80" as="geometry" />
        </mxCell>
        <mxCell id="9X9NrXB_2GdcQ_k7NygE-156" value="" style="edgeStyle=orthogonalEdgeStyle;curved=1;rounded=0;orthogonalLoop=1;jettySize=auto;html=1;labelBackgroundColor=none;fontSize=12;" edge="1" parent="1" source="9X9NrXB_2GdcQ_k7NygE-152" target="9X9NrXB_2GdcQ_k7NygE-155">
          <mxGeometry relative="1" as="geometry" />
        </mxCell>
        <mxCell id="9X9NrXB_2GdcQ_k7NygE-157" value="是" style="edgeLabel;html=1;align=center;verticalAlign=middle;resizable=0;points=[];fontSize=12;" vertex="1" connectable="0" parent="9X9NrXB_2GdcQ_k7NygE-156">
          <mxGeometry x="-0.1048" y="-2" relative="1" as="geometry">
            <mxPoint y="-2" as="offset" />
          </mxGeometry>
        </mxCell>
        <mxCell id="9X9NrXB_2GdcQ_k7NygE-159" style="edgeStyle=orthogonalEdgeStyle;curved=1;rounded=0;orthogonalLoop=1;jettySize=auto;html=1;exitX=0.5;exitY=1;exitDx=0;exitDy=0;labelBackgroundColor=none;fontSize=12;" edge="1" parent="1" source="9X9NrXB_2GdcQ_k7NygE-152" target="9X9NrXB_2GdcQ_k7NygE-158">
          <mxGeometry relative="1" as="geometry" />
        </mxCell>
        <mxCell id="9X9NrXB_2GdcQ_k7NygE-152" value="当前线程数是否 &amp;lt; 核心线程数" style="rhombus;whiteSpace=wrap;html=1;fontSize=12;fillColor=#fff2cc;strokeColor=#d6b656;" vertex="1" parent="1">
          <mxGeometry x="1265" y="255" width="210" height="80" as="geometry" />
        </mxCell>
        <mxCell id="9X9NrXB_2GdcQ_k7NygE-173" value="" style="edgeStyle=orthogonalEdgeStyle;curved=1;rounded=0;orthogonalLoop=1;jettySize=auto;html=1;labelBackgroundColor=none;fontSize=12;" edge="1" parent="1" source="9X9NrXB_2GdcQ_k7NygE-155" target="9X9NrXB_2GdcQ_k7NygE-172">
          <mxGeometry relative="1" as="geometry" />
        </mxCell>
        <mxCell id="9X9NrXB_2GdcQ_k7NygE-155" value="创建核心线程" style="whiteSpace=wrap;html=1;fillColor=#e1d5e7;strokeColor=#9673a6;" vertex="1" parent="1">
          <mxGeometry x="1580" y="265" width="120" height="60" as="geometry" />
        </mxCell>
        <mxCell id="9X9NrXB_2GdcQ_k7NygE-161" value="" style="edgeStyle=orthogonalEdgeStyle;curved=1;rounded=0;orthogonalLoop=1;jettySize=auto;html=1;labelBackgroundColor=none;fontSize=12;" edge="1" parent="1" source="9X9NrXB_2GdcQ_k7NygE-158" target="9X9NrXB_2GdcQ_k7NygE-160">
          <mxGeometry relative="1" as="geometry" />
        </mxCell>
        <mxCell id="9X9NrXB_2GdcQ_k7NygE-162" value="否" style="edgeLabel;html=1;align=center;verticalAlign=middle;resizable=0;points=[];fontSize=12;" vertex="1" connectable="0" parent="9X9NrXB_2GdcQ_k7NygE-161">
          <mxGeometry x="-0.0476" y="-1" relative="1" as="geometry">
            <mxPoint as="offset" />
          </mxGeometry>
        </mxCell>
        <mxCell id="9X9NrXB_2GdcQ_k7NygE-164" value="" style="edgeStyle=orthogonalEdgeStyle;curved=1;rounded=0;orthogonalLoop=1;jettySize=auto;html=1;labelBackgroundColor=none;fontSize=12;entryX=0.5;entryY=0;entryDx=0;entryDy=0;" edge="1" parent="1" source="9X9NrXB_2GdcQ_k7NygE-158" target="9X9NrXB_2GdcQ_k7NygE-166">
          <mxGeometry relative="1" as="geometry">
            <mxPoint x="1370" y="560" as="targetPoint" />
          </mxGeometry>
        </mxCell>
        <mxCell id="9X9NrXB_2GdcQ_k7NygE-165" value="是" style="edgeLabel;html=1;align=center;verticalAlign=middle;resizable=0;points=[];fontSize=12;" vertex="1" connectable="0" parent="9X9NrXB_2GdcQ_k7NygE-164">
          <mxGeometry x="-0.1333" y="2" relative="1" as="geometry">
            <mxPoint x="-2" as="offset" />
          </mxGeometry>
        </mxCell>
        <mxCell id="9X9NrXB_2GdcQ_k7NygE-158" value="任务队列是否满" style="rhombus;whiteSpace=wrap;html=1;fontSize=12;fillColor=#fff2cc;strokeColor=#d6b656;" vertex="1" parent="1">
          <mxGeometry x="1265" y="390" width="210" height="80" as="geometry" />
        </mxCell>
        <mxCell id="9X9NrXB_2GdcQ_k7NygE-160" value="任务添加到队列" style="whiteSpace=wrap;html=1;fillColor=#e1d5e7;strokeColor=#9673a6;" vertex="1" parent="1">
          <mxGeometry x="1580" y="400" width="120" height="60" as="geometry" />
        </mxCell>
        <mxCell id="9X9NrXB_2GdcQ_k7NygE-168" value="" style="edgeStyle=orthogonalEdgeStyle;curved=1;rounded=0;orthogonalLoop=1;jettySize=auto;html=1;labelBackgroundColor=none;fontSize=12;" edge="1" parent="1" source="9X9NrXB_2GdcQ_k7NygE-166" target="9X9NrXB_2GdcQ_k7NygE-167">
          <mxGeometry relative="1" as="geometry" />
        </mxCell>
        <mxCell id="9X9NrXB_2GdcQ_k7NygE-169" value="是" style="edgeLabel;html=1;align=center;verticalAlign=middle;resizable=0;points=[];fontSize=12;" vertex="1" connectable="0" parent="9X9NrXB_2GdcQ_k7NygE-168">
          <mxGeometry x="-0.0667" y="-1" relative="1" as="geometry">
            <mxPoint as="offset" />
          </mxGeometry>
        </mxCell>
        <mxCell id="9X9NrXB_2GdcQ_k7NygE-171" value="" style="edgeStyle=orthogonalEdgeStyle;curved=1;rounded=0;orthogonalLoop=1;jettySize=auto;html=1;labelBackgroundColor=none;fontSize=12;" edge="1" parent="1" source="9X9NrXB_2GdcQ_k7NygE-166" target="9X9NrXB_2GdcQ_k7NygE-170">
          <mxGeometry relative="1" as="geometry" />
        </mxCell>
        <mxCell id="9X9NrXB_2GdcQ_k7NygE-166" value="当前线程数是否 &amp;lt; 最大线程数" style="rhombus;whiteSpace=wrap;html=1;fontSize=12;fillColor=#fff2cc;strokeColor=#d6b656;" vertex="1" parent="1">
          <mxGeometry x="1265" y="540" width="210" height="80" as="geometry" />
        </mxCell>
        <mxCell id="9X9NrXB_2GdcQ_k7NygE-181" style="edgeStyle=orthogonalEdgeStyle;curved=1;orthogonalLoop=1;jettySize=auto;html=1;exitX=1;exitY=0.5;exitDx=0;exitDy=0;entryX=1;entryY=0.5;entryDx=0;entryDy=0;labelBackgroundColor=none;fontSize=12;" edge="1" parent="1" source="9X9NrXB_2GdcQ_k7NygE-167" target="9X9NrXB_2GdcQ_k7NygE-172">
          <mxGeometry relative="1" as="geometry">
            <Array as="points">
              <mxPoint x="1940" y="580" />
              <mxPoint x="1940" y="295" />
            </Array>
          </mxGeometry>
        </mxCell>
        <mxCell id="9X9NrXB_2GdcQ_k7NygE-167" value="创建临时线程" style="whiteSpace=wrap;html=1;fillColor=#e1d5e7;strokeColor=#9673a6;" vertex="1" parent="1">
          <mxGeometry x="1580" y="550" width="120" height="60" as="geometry" />
        </mxCell>
        <mxCell id="9X9NrXB_2GdcQ_k7NygE-170" value="拒绝策略" style="ellipse;whiteSpace=wrap;html=1;fillColor=#f8cecc;strokeColor=#b85450;" vertex="1" parent="1">
          <mxGeometry x="1330" y="700" width="80" height="80" as="geometry" />
        </mxCell>
        <mxCell id="9X9NrXB_2GdcQ_k7NygE-182" style="edgeStyle=orthogonalEdgeStyle;curved=1;orthogonalLoop=1;jettySize=auto;html=1;exitX=0.5;exitY=1;exitDx=0;exitDy=0;labelBackgroundColor=none;fontSize=12;" edge="1" parent="1" source="9X9NrXB_2GdcQ_k7NygE-172" target="9X9NrXB_2GdcQ_k7NygE-177">
          <mxGeometry relative="1" as="geometry" />
        </mxCell>
        <mxCell id="9X9NrXB_2GdcQ_k7NygE-172" value="执行任务" style="ellipse;whiteSpace=wrap;html=1;fillColor=#d5e8d4;strokeColor=#82b366;" vertex="1" parent="1">
          <mxGeometry x="1800" y="255" width="80" height="80" as="geometry" />
        </mxCell>
        <mxCell id="9X9NrXB_2GdcQ_k7NygE-183" style="edgeStyle=orthogonalEdgeStyle;curved=1;orthogonalLoop=1;jettySize=auto;html=1;exitX=0;exitY=0.5;exitDx=0;exitDy=0;entryX=1;entryY=0.5;entryDx=0;entryDy=0;labelBackgroundColor=none;fontSize=12;" edge="1" parent="1" source="9X9NrXB_2GdcQ_k7NygE-177" target="9X9NrXB_2GdcQ_k7NygE-160">
          <mxGeometry relative="1" as="geometry" />
        </mxCell>
        <mxCell id="9X9NrXB_2GdcQ_k7NygE-177" value="getTask" style="ellipse;whiteSpace=wrap;html=1;aspect=fixed;fontSize=12;fillColor=#ffe6cc;strokeColor=#d79b00;" vertex="1" parent="1">
          <mxGeometry x="1800" y="390" width="80" height="80" as="geometry" />
        </mxCell>
        <mxCell id="9X9NrXB_2GdcQ_k7NygE-184" value="临时合同" style="shape=tape;whiteSpace=wrap;html=1;fontSize=12;size=0.4;fillColor=#f8cecc;strokeColor=#b85450;" vertex="1" parent="1">
          <mxGeometry x="990" y="150" width="60" height="100" as="geometry" />
        </mxCell>
        <mxCell id="9X9NrXB_2GdcQ_k7NygE-185" value="长期合同" style="shape=tape;whiteSpace=wrap;html=1;fontSize=12;size=0.4;fillColor=#f8cecc;strokeColor=#b85450;" vertex="1" parent="1">
          <mxGeometry x="610" y="155" width="60" height="100" as="geometry" />
        </mxCell>
        <mxCell id="9X9NrXB_2GdcQ_k7NygE-186" value="存活时间" style="shape=tape;whiteSpace=wrap;html=1;fontSize=12;size=0.4;fillColor=#f8cecc;strokeColor=#b85450;" vertex="1" parent="1">
          <mxGeometry x="990" y="600" width="60" height="100" as="geometry" />
        </mxCell>
        <mxCell id="9X9NrXB_2GdcQ_k7NygE-187" value="永久存活" style="shape=tape;whiteSpace=wrap;html=1;fontSize=12;size=0.4;fillColor=#f8cecc;strokeColor=#b85450;" vertex="1" parent="1">
          <mxGeometry x="610" y="605" width="60" height="100" as="geometry" />
        </mxCell>
      </root>
    </mxGraphModel>
  </diagram>
</mxfile>
